<svg height="219" viewBox="0 0 710 219" width="710" xmlns="http://www.w3.org/2000/svg"><g><path d="m215.929545 0h-212.87718937c-1.68576946 0-3.05235563 1.36658617-3.05235563 3.05235563v212.87718937c0 1.68577 1.36658617 3.052356 3.05235563 3.052356h212.87718937c1.68577 0 3.052356-1.366586 3.052356-3.052356v-212.87718937c0-1.68576946-1.366586-3.05235563-3.052356-3.05235563zm-37.219046 177.972026h-15.901788v-88.124461c0-10.1088767.426673-21.0875107 1.28002-32.9359019h-.738473l-46.769965 121.0603629h-12.800202l-46.425344-121.2572891h-.7384732c.8861678 9.8463085 1.2800201 21.0218686 1.2800201 34.4620797v86.7952094h-14.7694627v-136.765225h23.9757612l43.2745256 112.838695h.787705l43.766841-112.838695h23.778835z" transform="translate(245)"/><g transform="translate(491)"><path d="m99.4465559 54.2432231h-23.1042419v109.4909509h19.3682368c18.9422012 0 33.1652382-4.668984 42.6691102-14.006951 9.503873-9.337967 14.272195-23.164076 14.304967-41.478328 0-17.8868103-4.473374-31.351238-13.420123-40.3932834-8.946749-9.0420455-22.219399-13.5795083-39.8179491-13.6123885z"/><path d="m215.929545 0h-212.87718937c-1.68576946 0-3.05235563 1.36658617-3.05235563 3.05235563v212.87718937c0 1.68577 1.36658617 3.052356 3.05235563 3.052356h212.87718937c1.68577 0 3.052356-1.366586 3.052356-3.052356v-212.87718937c0-1.68576946-1.366586-3.05235563-3.052356-3.05235563zm-65.231794 160.051745c-12.242243 11.979675-29.883546 17.953102-52.9239077 17.920281l-37.9082877.000134v-136.765359h41.9452744c21.268026 0 37.793414 5.8913746 49.576163 17.6741238 11.782749 11.7827491 17.674124 28.1932633 17.674124 49.2315422 0 22.712152-6.121122 40.025244-18.363366 51.939278z"/></g><path d="m215.929545 0h-212.87718937c-1.68576946 0-3.05235563 1.36658617-3.05235563 3.05235563v212.87718937c0 1.68577 1.36658617 3.052356 3.05235563 3.052356h212.87718937c1.68577 0 3.052356-1.366586 3.052356-3.052356v-212.87718937c0-1.68576946-1.366586-3.05235563-3.052356-3.05235563zm-131.3989866 151.091604c9.0797929 10.116491 22.2694916 15.551807 35.8405626 14.769463 11.067314-.176612 22.061318-1.832336 32.689744-4.923155v13.932527c-11.25317 3.692691-23.068481 5.375831-34.905163 4.972386-20.1192905 0-35.6600474-6.104712-46.6222708-18.314134-10.9622235-12.209423-16.5089773-29.588157-16.6402614-52.136204-.2708564-12.8048094 2.4428517-25.4968729 7.9262784-37.0713511 4.9315119-10.3231965 12.8798359-18.9066997 22.7942041-24.6157713 10.7690665-5.8490775 22.9029037-8.7210922 35.1513217-8.3201306 12.970337-.2911719 25.835622 2.3862892 37.612898 7.8278152l-6.744721 13.5386742c-9.682306-4.7144286-20.296348-7.2039346-31.065104-7.2862683-13.528012-.6518761-26.6207816 4.871353-35.5944047 15.0156205-8.7303936 9.8463084-13.0791798 23.5490878-13.0463588 41.1083374.0328211 17.559251 4.2339127 31.393314 12.6032749 41.502191z"/></g></svg>