<svg viewBox="0 0 64 64" xmlns="http://www.w3.org/2000/svg"><path d="m63.39 16.19a2.11 2.11 0 0 0 .4-.68 1 1 0 0 0 .08-.22 2.35 2.35 0 0 0 .1-.6 1.64 1.64 0 0 0 0-.22s0-.08 0-.12a2.64 2.64 0 0 0 -.14-.69s0 0 0-.06a2.57 2.57 0 0 0 -.36-.65.73.73 0 0 1 0-.09l-10.36-12.15a1.87 1.87 0 0 0 -2.9 0 2.64 2.64 0 0 0 0 3.34l5.56 6.54a53.92 53.92 0 0 0 -16.48.72c-24.68 4.43-42.12 27.19-38.91 50.69a2.16 2.16 0 0 0 2 2h.32a2.33 2.33 0 0 0 1.7-2.69c-2.83-20.97 13.08-41.31 35.6-45.39a50.1 50.1 0 0 1 16.12-.58l-8.58 5.1a2.53 2.53 0 0 0 -.88 3.17 1.92 1.92 0 0 0 2.75 1l13.52-8a2.19 2.19 0 0 0 .46-.42z" fill="#dedede"/></svg>