<svg xmlns="http://www.w3.org/2000/svg" viewBox="0 0 71.11 60.78"><title>Asset 5</title><path d="M52.33,19.13a14.52,14.52,0,0,1-5.85,4.32c-5.87,2.66-2.25,8.94,2.56,7A5.26,5.26,0,0,1,46.1,33.6l-.13.58,3,.64,2.94.64.13-.58a5.28,5.28,0,0,1-1.36-4.13c3.56,3.8,9.46-.41,5.22-5.27A14.29,14.29,0,0,1,52.33,19.13Z"/><path d="M21.5,17.26l0-.24a2.2,2.2,0,0,1-1-1.77,2.62,2.62,0,0,1,.52.32,1.25,1.25,0,0,0,.95.33,1.28,1.28,0,0,0,1.18-1.39,1.3,1.3,0,0,0-1.38-1.19,1.29,1.29,0,0,0-.89.47,2.1,2.1,0,0,1-.43.38,2.37,2.37,0,0,1,.48-1,1.31,1.31,0,0,0,.32-1,1.26,1.26,0,1,0-2.06,1.1,2.33,2.33,0,0,1,.63.89,2.32,2.32,0,0,1-.49-.31,1.23,1.23,0,0,0-.95-.32,1.29,1.29,0,0,0,.2,2.58,1.24,1.24,0,0,0,.89-.48,2.39,2.39,0,0,1,.46-.4,2.22,2.22,0,0,1-.75,1.92v.23l1.19-.09Z"/><polygon points="34.83 9.97 33.07 6.68 30.88 9.7 32.64 12.99 34.83 9.97"/><path d="M9.31,16.85a1.71,1.71,0,0,0-1.37,1.74,1.7,1.7,0,0,0-2.16-.45,1.51,1.51,0,0,0-.22,2.16c.58.87,3.9,2.48,3.91,2.47s1.51-3.37,1.4-4.41A1.52,1.52,0,0,0,9.31,16.85Z"/><path d="M39.49,35.69a.69.69,0,0,0-.85.51.7.7,0,1,0,1.36.34A.69.69,0,0,0,39.49,35.69Z"/><path d="M38,33.12a.7.7,0,1,0,1.36.34A.7.7,0,1,0,38,33.12Z"/><path d="M36.41,36.37a.72.72,0,0,0,.86-.52.71.71,0,0,0-.52-.85.69.69,0,0,0-.85.51A.7.7,0,0,0,36.41,36.37Z"/><path d="M38.63,42a.72.72,0,0,0-.52-.86.7.7,0,0,0-.85.52.69.69,0,0,0,.51.85A.7.7,0,0,0,38.63,42Z"/><path d="M36.05,43.56a.69.69,0,0,0-.85.51.7.7,0,0,0,.51.86.72.72,0,0,0,.86-.52A.71.71,0,0,0,36.05,43.56Z"/><path d="M38.79,44.25a.7.7,0,0,0-.86.51.72.72,0,0,0,.52.86.7.7,0,0,0,.85-.52A.69.69,0,0,0,38.79,44.25Z"/><path d="M41.53,44.94a.7.7,0,0,0-.86.51.71.71,0,1,0,1.37.34A.69.69,0,0,0,41.53,44.94Z"/><path d="M44.27,45.63a.7.7,0,1,0,.51.85A.69.69,0,0,0,44.27,45.63Z"/><path d="M44.1,43.4a.7.7,0,0,0-.51-.86.72.72,0,0,0-.86.52.71.71,0,0,0,.51.85A.7.7,0,0,0,44.1,43.4Z"/><path d="M41.36,42.71a.7.7,0,0,0-.51-.86.72.72,0,0,0-.86.52.71.71,0,0,0,.52.85A.69.69,0,0,0,41.36,42.71Z"/><path d="M37.79,30.89a.7.7,0,0,0,.86-.51.72.72,0,0,0-.52-.86.71.71,0,0,0-.34,1.37Z"/><path d="M47,46.32a.7.7,0,0,0-.86.51.69.69,0,0,0,.51.85A.7.7,0,1,0,47,46.32Z"/><path d="M35.89,41.33a.72.72,0,0,0-.52-.86.71.71,0,0,0-.85.52.69.69,0,0,0,.51.85A.7.7,0,0,0,35.89,41.33Z"/><path d="M38,38.94a.72.72,0,0,0-.52-.86.71.71,0,1,0,.52.86Z"/><path d="M29.84,36.51a.71.71,0,0,0,.76-.65.7.7,0,0,0-.65-.75.71.71,0,0,0-.76.65A.7.7,0,0,0,29.84,36.51Z"/><path d="M28.23,39.23a.71.71,0,0,0,.76-.65.72.72,0,0,0-.66-.76.7.7,0,0,0-.75.65A.71.71,0,0,0,28.23,39.23Z"/><path d="M29.12,46.37a.69.69,0,0,0-.75.65.7.7,0,1,0,.75-.65Z"/><path d="M27.92,43.45a.71.71,0,0,0-.76.65.72.72,0,0,0,.66.76.71.71,0,0,0,.1-1.41Z"/><path d="M29.53,40.74a.71.71,0,0,0-.1,1.41.71.71,0,1,0,.1-1.41Z"/><path d="M21.1,43.6a.71.71,0,0,0-1.4.2.71.71,0,1,0,1.4-.2Z"/><path d="M22.89,51.19a.7.7,0,1,0,.8.6A.7.7,0,0,0,22.89,51.19Z"/><path d="M21.09,48.59a.71.71,0,1,0,.8.6A.7.7,0,0,0,21.09,48.59Z"/><path d="M22.1,45.6a.7.7,0,1,0,.79.59A.69.69,0,0,0,22.1,45.6Z"/><path d="M18.44,55.55a.71.71,0,0,0,.47,1.33.71.71,0,0,0,.43-.9A.71.71,0,0,0,18.44,55.55Z"/><path d="M16.16,53.36a.71.71,0,1,0,.9.43A.7.7,0,0,0,16.16,53.36Z"/><path d="M68,5.54,44.14.1a3.8,3.8,0,0,0-.89-.1A4,4,0,0,0,39.6,2.39h0l-9.12-.5A4,4,0,0,0,26.29,5.5L15.77,6.81a4,4,0,0,0-3.48,4.46,4.48,4.48,0,0,1,0-.73L2.7,13.85a3.89,3.89,0,0,0-2.29,2,3.94,3.94,0,0,0-.19,3l13.5,39.15a4,4,0,0,0,3.78,2.7,4.14,4.14,0,0,0,1.31-.22l19.63-6.78,7.69-1a3.21,3.21,0,0,0,1.19-.52l4.65.25L57,53.71a3.8,3.8,0,0,0,.89.1,4,4,0,0,0,3.9-3.11L71,10.33A4,4,0,0,0,68,5.54ZM18,58.33a1.65,1.65,0,0,1-2.09-1L2.45,18.16a1.63,1.63,0,0,1,1-2.09l9-3.12,4.88,39.42a4,4,0,0,0,4.46,3.47l5.34-.66ZM36.2,51.69,21.55,53.51a1.64,1.64,0,0,1-1.83-1.43L14.62,11a1.65,1.65,0,0,1,1.44-1.84L26.14,7.89,24,47a4,4,0,0,0,3.77,4.21l8.46.47Zm-8.32-2.81a1.65,1.65,0,0,1-1.56-1.74L28.61,5.79a1.64,1.64,0,0,1,1.64-1.55L39,4.72,30.15,43.49a4,4,0,0,0,3,4.79l5.16,1.17ZM68.72,9.8l-9.2,40.38a1.68,1.68,0,0,1-2,1.24L33.69,46a1.64,1.64,0,0,1-1-.73A1.59,1.59,0,0,1,32.45,44l9.2-40.38a1.66,1.66,0,0,1,1.6-1.28,2.21,2.21,0,0,1,.37,0L67.48,7.83a1.67,1.67,0,0,1,1,.73A1.64,1.64,0,0,1,68.72,9.8Z"/></svg>