<svg viewBox="0 0 50.87 61.19" xmlns="http://www.w3.org/2000/svg"><path d="m46.59 9.68a23 23 0 0 0 -31.21-6l-2.13-3a1.16 1.16 0 0 0 -.76-.47 1.17 1.17 0 0 0 -.87.2 27.8 27.8 0 0 0 10.7 49.86 9.9 9.9 0 0 0 -4.32 8.15v1.58a1.16 1.16 0 0 0 1.16 1.16h17.47a1.17 1.17 0 0 0 1.17-1.16v-1.58a9.87 9.87 0 0 0 -4.3-8.14 27.86 27.86 0 0 0 10.5-4.58 1.19 1.19 0 0 0 .47-.76 1.16 1.16 0 0 0 -.2-.87l-2.14-3a23 23 0 0 0 4.48-31.4zm-11.12 48.74v.44h-15.1v-.44a7.55 7.55 0 0 1 7.51-7.55h.05a7.56 7.56 0 0 1 7.54 7.55zm-11.88-10.24a25.49 25.49 0 0 1 -11.54-45.18l1.44 2a23 23 0 0 0 -4.43 31.4 22.85 22.85 0 0 0 14.94 9.36 23.16 23.16 0 0 0 3.87.33 22.79 22.79 0 0 0 12.35-3.65l1.44 2a25.25 25.25 0 0 1 -18.07 3.74zm21.93-14.38a.78.78 0 0 0 -.52.73.43.43 0 0 1 0 0 20.69 20.69 0 0 1 -5.16 5.32l-.15.1a.47.47 0 0 0 -.16 0 .78.78 0 0 0 -.76.63 20.69 20.69 0 0 1 -6.56 2.68.79.79 0 0 0 -.51-.2.78.78 0 0 0 -.68.42c-.57.08-1.13.14-1.71.18a.76.76 0 0 0 -1.5.06c-.54 0-1.09 0-1.63-.06a.78.78 0 0 0 -.75-.6.77.77 0 0 0 -.68.43h-.36a20.76 20.76 0 0 1 -6.27-2.13.8.8 0 0 0 .27-.58.78.78 0 0 0 -.79-.78.77.77 0 0 0 -.75.64 20.26 20.26 0 0 1 -3.3-2.56.75.75 0 0 0 .14-.41.78.78 0 0 0 -.78-.78.75.75 0 0 0 -.39.12c-.49-.55-1-1.12-1.4-1.72a.77.77 0 1 0 .22-1.51.77.77 0 0 0 -.77.7 20.77 20.77 0 0 1 -2.57-5.48.71.71 0 0 0 .2 0 .78.78 0 0 0 0-1.56.76.76 0 0 0 -.56.24c-.16-.71-.29-1.42-.38-2.13a.75.75 0 0 0 .15-.44.73.73 0 0 0 -.23-.55 21.36 21.36 0 0 1 .21-5 20.69 20.69 0 0 1 2.1-6.19 5.63 5.63 0 0 1 1.25 2.69c.3 1.3.55 2.71 1.53 3.61a5.92 5.92 0 0 0 2.4 1.1l2.49.71a4.16 4.16 0 0 1 2.15 1.11 4.15 4.15 0 0 1 .69 2.11 7.25 7.25 0 0 0 1.4 3.89c.72.81 1.76 1.26 2.54 2a8.36 8.36 0 0 1 1.9 4c.12.48.2 1.07.66 1.35a1 1 0 0 0 .82.11 1.47 1.47 0 0 0 .38-.05 1 1 0 0 0 .24-.18 1.11 1.11 0 0 0 .18-.34 2.36 2.36 0 0 0 .12-.91 17.86 17.86 0 0 1 0-3.27 13.07 13.07 0 0 1 .86-2.56 21.63 21.63 0 0 0 .78-2.52 4 4 0 0 0 .12-1.41 3.6 3.6 0 0 0 -2.14-2.42c-.22 0-.62-.31-.83-.4s-.62-.25-.93-.35a13.29 13.29 0 0 0 -1.86-.46 23.57 23.57 0 0 0 -3.85-.13 5.63 5.63 0 0 1 -3.39-.74 2.85 2.85 0 0 1 -1.07-2.48 2.32 2.32 0 0 1 .48-1.2c.32-.49.52-1.07.83-1.57a10.14 10.14 0 0 1 1.6-1.92c1.16-1.14 2.57-2.14 3.68-3.45a2.33 2.33 0 0 0 .58-1 1 1 0 0 0 -.39-1c-.59-.31-1.22.27-1.72.71a4.73 4.73 0 0 1 -4.38.94l1.44-2.54c.16-.28.29-.69 0-.86a.42.42 0 0 0 -.29-.06 3.74 3.74 0 0 0 -1.93 1 7.3 7.3 0 0 1 -2 1 19.92 19.92 0 0 1 2-1.65 20.74 20.74 0 0 1 6.9-3.23.28.28 0 0 0 0 .13c0 .22.25.34.46.4a8.71 8.71 0 0 0 2 .28c.25 0 .6.09.57.34s-.11.19-.19.27-1 1-.34 1.13a.54.54 0 0 0 .22 0 4.65 4.65 0 0 0 2.47-1.35 13.81 13.81 0 0 1 1.38-1.39c.18-.13.37-.25.56-.37.47.05.93.1 1.4.18a20.64 20.64 0 0 1 7.15 2.63.86.86 0 0 0 -.35.09c-.59.31-.25 1.32-.71 1.82s-1.11.27-1.53.64-.27 1.2.08 1.74a3.17 3.17 0 0 1 .83 1.69c0 .83-.83 1.21-1.41 1.63a2.49 2.49 0 0 0 -.89 1.24 3.18 3.18 0 0 0 -.15 1.47 3.26 3.26 0 0 0 2.42 2.64c1 .24 2 0 3 .33 1.47.5 2.16 2.12 2.87 3.51a19.78 19.78 0 0 0 1.47 2.4.76.76 0 0 0 -.61.74.78.78 0 0 0 .78.78.77.77 0 0 0 .69-.43 2.55 2.55 0 0 0 1 .68 2.36 2.36 0 0 0 2.47-.94c0 .4-.07.8-.14 1.2a20.61 20.61 0 0 1 -2.71 7.32z"/><path d="m20.74 40a.78.78 0 1 0 .78.78.78.78 0 0 0 -.78-.78z"/><path d="m23.87 40a.78.78 0 1 0 .78.78.78.78 0 0 0 -.78-.78z"/><path d="m27 40a.78.78 0 1 0 .78.78.78.78 0 0 0 -.78-.78z"/><path d="m30.13 40a.78.78 0 1 0 .78.78.78.78 0 0 0 -.78-.78z"/><path d="m16 36.86a.78.78 0 1 0 0 1.56.78.78 0 0 0 0-1.56z"/><path d="m19.17 36.86a.78.78 0 1 0 .78.78.78.78 0 0 0 -.78-.78z"/><path d="m22.3 36.86a.78.78 0 1 0 0 1.56.78.78 0 1 0 0-1.56z"/><path d="m25.43 36.86a.78.78 0 1 0 .79.78.78.78 0 0 0 -.79-.78z"/><path d="m28.56 36.86a.78.78 0 1 0 .79.78.78.78 0 0 0 -.79-.78z"/><path d="m31.7 36.86a.78.78 0 1 0 0 1.56.78.78 0 0 0 0-1.56z"/><path d="m33.26 40a.78.78 0 1 0 .79.78.78.78 0 0 0 -.79-.78z"/><path d="m34.83 36.86a.78.78 0 1 0 .78.78.78.78 0 0 0 -.78-.78z"/><path d="m36.39 40a.78.78 0 0 0 0 1.56.78.78 0 1 0 0-1.56z"/><path d="m38 36.86a.78.78 0 1 0 .78.78.78.78 0 0 0 -.78-.78z"/><path d="m41.09 36.86a.78.78 0 1 0 .78.78.78.78 0 0 0 -.78-.78z"/><path d="m14.47 33.75a.78.78 0 1 0 .78.78.78.78 0 0 0 -.78-.78z"/><path d="m17.6 33.75a.78.78 0 1 0 .79.78.78.78 0 0 0 -.79-.78z"/><path d="m20.74 35.31a.78.78 0 1 0 -.79-.78.78.78 0 0 0 .79.78z"/><path d="m23.87 35.31a.78.78 0 1 0 -.78-.78.78.78 0 0 0 .78.78z"/><path d="m30.13 35.31a.78.78 0 1 0 -.78-.78.78.78 0 0 0 .78.78z"/><path d="m9.77 30.64a.78.78 0 1 0 .79.77.78.78 0 0 0 -.79-.77z"/><path d="m12.91 30.64a.78.78 0 1 0 .78.77.78.78 0 0 0 -.78-.77z"/><path d="m16 30.64a.78.78 0 1 0 0 1.55.78.78 0 1 0 0-1.55z"/><path d="m19.17 32.19a.78.78 0 1 0 -.78-.78.77.77 0 0 0 .78.78z"/><path d="m33.26 35.31a.78.78 0 1 0 -.78-.78.78.78 0 0 0 .78.78z"/><path d="m34.83 32.19a.78.78 0 1 0 -.78-.78.77.77 0 0 0 .78.78z"/><path d="m11.34 27.52a.78.78 0 1 0 .78.78.78.78 0 0 0 -.78-.78z"/><path d="m14.47 29.08a.78.78 0 1 0 -.78-.78.78.78 0 0 0 .78.78z"/><path d="m17.6 29.08a.78.78 0 1 0 -.78-.78.78.78 0 0 0 .78.78z"/><path d="m9.77 26a.78.78 0 1 0 -.77-.81.78.78 0 0 0 .77.81z"/><path d="m12.91 26a.78.78 0 1 0 -.79-.78.78.78 0 0 0 .79.78z"/><path d="m16 26a.78.78 0 0 0 0-1.56.78.78 0 1 0 0 1.56z"/><path d="m36.39 35.31a.78.78 0 1 0 0-1.56.78.78 0 0 0 0 1.56z"/><path d="m38 32.19a.78.78 0 1 0 -.78-.78.77.77 0 0 0 .78.78z"/><path d="m39.53 33.75a.78.78 0 1 0 .78.78.78.78 0 0 0 -.78-.78z"/><path d="m42.66 33.75a.78.78 0 1 0 .78.78.78.78 0 0 0 -.78-.78z"/><path d="m41.09 30.64a.78.78 0 1 0 .78.77.78.78 0 0 0 -.78-.77z"/><path d="m44.22 30.64a.78.78 0 1 0 0 1.55.78.78 0 1 0 0-1.55z"/><path d="m39.53 29.08a.78.78 0 1 0 -.79-.78.78.78 0 0 0 .79.78z"/><path d="m42.66 29.08a.78.78 0 1 0 -.79-.78.78.78 0 0 0 .79.78z"/><path d="m45.79 27.52a.78.78 0 1 0 0 1.56.78.78 0 1 0 0-1.56z"/><path d="m41.09 26a.78.78 0 1 0 -.78-.78.78.78 0 0 0 .78.78z"/></svg>