<svg xmlns="http://www.w3.org/2000/svg" viewBox="0 0 50.87 61.19"><title>Asset 7</title><path d="M46.59,9.68a23,23,0,0,0-31.21-6l-2.13-3a1.16,1.16,0,0,0-.76-.47,1.17,1.17,0,0,0-.87.2,27.8,27.8,0,0,0,10.7,49.86A9.9,9.9,0,0,0,18,58.42V60a1.16,1.16,0,0,0,1.16,1.16H36.63A1.17,1.17,0,0,0,37.8,60V58.42a9.87,9.87,0,0,0-4.3-8.14A27.86,27.86,0,0,0,44,45.7a1.19,1.19,0,0,0,.47-.76,1.16,1.16,0,0,0-.2-.87l-2.14-3a23,23,0,0,0,4.48-31.4ZM35.47,58.42v.44H20.37v-.44a7.55,7.55,0,0,1,7.51-7.55h.05A7.56,7.56,0,0,1,35.47,58.42ZM23.59,48.18A25.49,25.49,0,0,1,12.05,3l1.44,2A23,23,0,0,0,9.06,36.4,22.85,22.85,0,0,0,24,45.76a23.16,23.16,0,0,0,3.87.33,22.79,22.79,0,0,0,12.35-3.65l1.44,2A25.25,25.25,0,0,1,23.59,48.18ZM45.52,33.8a.78.78,0,0,0-.52.73.43.43,0,0,1,0,0,20.69,20.69,0,0,1-5.16,5.32h0l-.15.1a.47.47,0,0,0-.16,0,.78.78,0,0,0-.76.63,20.69,20.69,0,0,1-6.56,2.68.79.79,0,0,0-.51-.2.78.78,0,0,0-.68.42c-.57.08-1.13.14-1.71.18a.76.76,0,0,0-1.5.06c-.54,0-1.09,0-1.63-.06a.78.78,0,0,0-.75-.6.77.77,0,0,0-.68.43l-.36,0a20.76,20.76,0,0,1-6.27-2.13.8.8,0,0,0,.27-.58A.78.78,0,0,0,17.6,40a.77.77,0,0,0-.75.64,20.26,20.26,0,0,1-3.3-2.56.75.75,0,0,0,.14-.41.78.78,0,0,0-.78-.78.75.75,0,0,0-.39.12c-.49-.55-1-1.12-1.4-1.72a.77.77,0,1,0,.22-1.51.77.77,0,0,0-.77.7A20.77,20.77,0,0,1,8,29a.71.71,0,0,0,.2,0,.78.78,0,0,0,0-1.56.76.76,0,0,0-.56.24c-.16-.71-.29-1.42-.38-2.13a.75.75,0,0,0,.15-.44.73.73,0,0,0-.23-.55,21.36,21.36,0,0,1,.21-5,20.69,20.69,0,0,1,2.1-6.19,5.63,5.63,0,0,1,1.25,2.69c.3,1.3.55,2.71,1.53,3.61a5.92,5.92,0,0,0,2.4,1.1l2.49.71a4.16,4.16,0,0,1,2.15,1.11A4.15,4.15,0,0,1,20,24.7a7.25,7.25,0,0,0,1.4,3.89c.72.81,1.76,1.26,2.54,2a8.36,8.36,0,0,1,1.9,4c.12.48.2,1.07.66,1.35a1,1,0,0,0,.82.11A1.47,1.47,0,0,0,27.7,36a1,1,0,0,0,.24-.18,1.11,1.11,0,0,0,.18-.34,2.36,2.36,0,0,0,.12-.91,17.86,17.86,0,0,1,0-3.27,13.07,13.07,0,0,1,.86-2.56,21.63,21.63,0,0,0,.78-2.52A4,4,0,0,0,30,24.81a3.6,3.6,0,0,0-2.14-2.42c-.22,0-.62-.31-.83-.4s-.62-.25-.93-.35a13.29,13.29,0,0,0-1.86-.46,23.57,23.57,0,0,0-3.85-.13A5.63,5.63,0,0,1,17,20.31a2.85,2.85,0,0,1-1.07-2.48,2.32,2.32,0,0,1,.48-1.2c.32-.49.52-1.07.83-1.57a10.14,10.14,0,0,1,1.6-1.92C20,12,21.41,11,22.52,9.69a2.33,2.33,0,0,0,.58-1,1,1,0,0,0-.39-1c-.59-.31-1.22.27-1.72.71a4.73,4.73,0,0,1-4.38.94l1.44-2.54c.16-.28.29-.69,0-.86a.42.42,0,0,0-.29-.06,3.74,3.74,0,0,0-1.93,1,7.3,7.3,0,0,1-2,1,19.92,19.92,0,0,1,2-1.65A20.74,20.74,0,0,1,22.73,3a.28.28,0,0,0,0,.13c0,.22.25.34.46.4a8.71,8.71,0,0,0,2,.28c.25,0,.6.09.57.34s-.11.19-.19.27-1,1-.34,1.13a.54.54,0,0,0,.22,0,4.65,4.65,0,0,0,2.47-1.35A13.81,13.81,0,0,1,29.3,2.81c.18-.13.37-.25.56-.37.47.05.93.1,1.4.18a20.64,20.64,0,0,1,7.15,2.63.86.86,0,0,0-.35.09c-.59.31-.25,1.32-.71,1.82s-1.11.27-1.53.64S35.55,9,35.9,9.54a3.17,3.17,0,0,1,.83,1.69c0,.83-.83,1.21-1.41,1.63a2.49,2.49,0,0,0-.89,1.24,3.18,3.18,0,0,0-.15,1.47,3.26,3.26,0,0,0,2.42,2.64c1,.24,2,0,3,.33,1.47.5,2.16,2.12,2.87,3.51a19.78,19.78,0,0,0,1.47,2.4.76.76,0,0,0-.61.74.78.78,0,0,0,.78.78h0a.77.77,0,0,0,.69-.43,2.55,2.55,0,0,0,1,.68,2.36,2.36,0,0,0,2.47-.94c0,.4-.07.8-.14,1.2A20.61,20.61,0,0,1,45.52,33.8Z"/><path d="M20.74,40a.78.78,0,1,0,.78.78A.78.78,0,0,0,20.74,40Z"/><path d="M23.87,40a.78.78,0,1,0,.78.78A.78.78,0,0,0,23.87,40Z"/><path d="M27,40a.78.78,0,1,0,.78.78A.78.78,0,0,0,27,40Z"/><path d="M30.13,40a.78.78,0,1,0,.78.78A.78.78,0,0,0,30.13,40Z"/><path d="M16,36.86a.78.78,0,1,0,0,1.56.78.78,0,0,0,0-1.56Z"/><path d="M19.17,36.86a.78.78,0,1,0,.78.78A.78.78,0,0,0,19.17,36.86Z"/><path d="M22.3,36.86a.78.78,0,1,0,0,1.56.78.78,0,1,0,0-1.56Z"/><path d="M25.43,36.86a.78.78,0,1,0,.79.78A.78.78,0,0,0,25.43,36.86Z"/><path d="M28.56,36.86a.78.78,0,1,0,.79.78A.78.78,0,0,0,28.56,36.86Z"/><path d="M31.7,36.86a.78.78,0,1,0,0,1.56.78.78,0,0,0,0-1.56Z"/><path d="M33.26,40a.78.78,0,1,0,.79.78A.78.78,0,0,0,33.26,40Z"/><path d="M34.83,36.86a.78.78,0,1,0,.78.78A.78.78,0,0,0,34.83,36.86Z"/><path d="M36.39,40a.78.78,0,0,0,0,1.56.78.78,0,1,0,0-1.56Z"/><path d="M38,36.86a.78.78,0,1,0,.78.78A.78.78,0,0,0,38,36.86Z"/><path d="M41.09,36.86a.78.78,0,1,0,.78.78A.78.78,0,0,0,41.09,36.86Z"/><path d="M14.47,33.75a.78.78,0,1,0,.78.78A.78.78,0,0,0,14.47,33.75Z"/><path d="M17.6,33.75a.78.78,0,1,0,.79.78A.78.78,0,0,0,17.6,33.75Z"/><path d="M20.74,35.31a.78.78,0,1,0-.79-.78A.78.78,0,0,0,20.74,35.31Z"/><path d="M23.87,35.31a.78.78,0,1,0-.78-.78A.78.78,0,0,0,23.87,35.31Z"/><path d="M30.13,35.31a.78.78,0,1,0-.78-.78A.78.78,0,0,0,30.13,35.31Z"/><path d="M9.77,30.64a.78.78,0,1,0,.79.77A.78.78,0,0,0,9.77,30.64Z"/><path d="M12.91,30.64a.78.78,0,1,0,.78.77A.78.78,0,0,0,12.91,30.64Z"/><path d="M16,30.64a.78.78,0,1,0,0,1.55.78.78,0,1,0,0-1.55Z"/><path d="M19.17,32.19a.78.78,0,1,0-.78-.78A.77.77,0,0,0,19.17,32.19Z"/><path d="M33.26,35.31a.78.78,0,1,0-.78-.78A.78.78,0,0,0,33.26,35.31Z"/><path d="M34.83,32.19a.78.78,0,1,0-.78-.78A.77.77,0,0,0,34.83,32.19Z"/><path d="M11.34,27.52a.78.78,0,1,0,.78.78A.78.78,0,0,0,11.34,27.52Z"/><path d="M14.47,29.08a.78.78,0,1,0-.78-.78A.78.78,0,0,0,14.47,29.08Z"/><path d="M17.6,29.08a.78.78,0,1,0-.78-.78A.78.78,0,0,0,17.6,29.08Z"/><path d="M9.77,26A.78.78,0,1,0,9,25.19.78.78,0,0,0,9.77,26Z"/><path d="M12.91,26a.78.78,0,1,0-.79-.78A.78.78,0,0,0,12.91,26Z"/><path d="M16,26a.78.78,0,0,0,0-1.56A.78.78,0,1,0,16,26Z"/><path d="M36.39,35.31a.78.78,0,1,0,0-1.56.78.78,0,0,0,0,1.56Z"/><path d="M38,32.19a.78.78,0,1,0-.78-.78A.77.77,0,0,0,38,32.19Z"/><path d="M39.53,33.75a.78.78,0,1,0,.78.78A.78.78,0,0,0,39.53,33.75Z"/><path d="M42.66,33.75a.78.78,0,1,0,.78.78A.78.78,0,0,0,42.66,33.75Z"/><path d="M41.09,30.64a.78.78,0,1,0,.78.77A.78.78,0,0,0,41.09,30.64Z"/><path d="M44.22,30.64a.78.78,0,1,0,0,1.55.78.78,0,1,0,0-1.55Z"/><path d="M39.53,29.08a.78.78,0,1,0-.79-.78A.78.78,0,0,0,39.53,29.08Z"/><path d="M42.66,29.08a.78.78,0,1,0-.79-.78A.78.78,0,0,0,42.66,29.08Z"/><path d="M45.79,27.52a.78.78,0,1,0,0,1.56.78.78,0,1,0,0-1.56Z"/><path d="M41.09,26a.78.78,0,1,0-.78-.78A.78.78,0,0,0,41.09,26Z"/></svg>