<svg xmlns="http://www.w3.org/2000/svg" viewBox="0 0 36.84 57.32"><title>Asset 9</title><path d="M25,41.13a.7.7,0,0,0-.7.71.7.7,0,0,0,.7.7.7.7,0,0,0,.71-.7A.71.71,0,0,0,25,41.13Z"/><circle cx="17.94" cy="39.01" r="0.71"/><path d="M23.59,38.31a.7.7,0,0,0-.71.7.71.71,0,0,0,1.42,0A.7.7,0,0,0,23.59,38.31Z"/><circle cx="30.65" cy="53.01" r="0.71"/><path d="M29.24,49.48a.71.71,0,1,0,0,1.42.71.71,0,0,0,0-1.42Z"/><path d="M32.06,49.48a.71.71,0,1,0,.71.71A.71.71,0,0,0,32.06,49.48Z"/><path d="M27.83,46.66a.71.71,0,0,0-.71.71.71.71,0,1,0,.71-.71Z"/><circle cx="30.65" cy="47.37" r="0.71"/><path d="M32.06,39.6a.7.7,0,0,0,.71-.7.71.71,0,0,0-1.42,0A.7.7,0,0,0,32.06,39.6Z"/><circle cx="32.21" cy="33.25" r="0.71"/><path d="M33.47,35.37a.7.7,0,0,0-.7.7.7.7,0,0,0,.7.71.71.71,0,0,0,.71-.71A.7.7,0,0,0,33.47,35.37Z"/><path d="M29.24,45.25a.7.7,0,0,0,.7-.71.7.7,0,0,0-.7-.7.7.7,0,0,0-.71.7A.71.71,0,0,0,29.24,45.25Z"/><path d="M32.06,43.84a.7.7,0,0,0-.71.7.71.71,0,0,0,1.42,0A.7.7,0,0,0,32.06,43.84Z"/><path d="M27.81,42.43a.71.71,0,1,0-.71-.71A.71.71,0,0,0,27.81,42.43Z"/><path d="M22.16,41a.71.71,0,0,0,0,1.42.71.71,0,0,0,0-1.42Z"/><path d="M20.75,38.19a.7.7,0,0,0-.7.71.7.7,0,0,0,.7.7.7.7,0,0,0,.71-.7A.71.71,0,0,0,20.75,38.19Z"/><path d="M26.4,39.6a.7.7,0,0,0,.7-.7.7.7,0,0,0-.7-.71.71.71,0,0,0-.71.71A.7.7,0,0,0,26.4,39.6Z"/><path d="M26.4,43.84a.7.7,0,0,0-.71.7.71.71,0,0,0,.71.71.7.7,0,0,0,.7-.71A.7.7,0,0,0,26.4,43.84Z"/><path d="M29.24,39.6a.7.7,0,0,0,.7-.7.7.7,0,0,0-.7-.71.71.71,0,0,0-.71.71A.7.7,0,0,0,29.24,39.6Z"/><path d="M30.65,42.43a.71.71,0,0,0,0-1.42.71.71,0,1,0,0,1.42Z"/><path d="M33.47,41a.71.71,0,0,0,0,1.42.71.71,0,0,0,0-1.42Z"/><path d="M32.82,28.59a4.19,4.19,0,0,0-1.67.34v-.47a3.9,3.9,0,0,0-4-3.77,4.27,4.27,0,0,0-1.76.38,4,4,0,0,0-3.93-3,4.14,4.14,0,0,0-1.66.34V19.1H30.06a1.88,1.88,0,1,0,0-3.76h-9.5l6.85-6.85a1.88,1.88,0,0,0-2.66-2.66l-6.62,6.61a2.87,2.87,0,0,0-.48-.28V1.88a1.89,1.89,0,0,0-3.77,0V12.16a3.82,3.82,0,0,0-.48.29L6.8,5.85A1.88,1.88,0,0,0,4.14,8.51L11,15.34H1.88a1.88,1.88,0,1,0,0,3.76h9.87v15a4.34,4.34,0,0,0-1.68-.33,4.07,4.07,0,0,0-4.14,4.27v5.11c0,5.55,3.83,11.71,7.41,14a1.18,1.18,0,0,0,.63.18H31.82a1.2,1.2,0,0,0,.82-.33c3.2-3.1,4.2-10.51,4.2-12.86V32.36A3.91,3.91,0,0,0,32.82,28.59Zm1.66,15.54c0,2.12-.95,8.24-3.17,10.84h-17a16.33,16.33,0,0,1-6-11.81V38.05a1.74,1.74,0,0,1,1.79-1.92c.36,0,1.45,0,1.69,1.68a1.18,1.18,0,0,0,2.34-.17l0-22.16a1.56,1.56,0,0,1,1.66-1.43,1.56,1.56,0,0,1,1.66,1.43V33.74a1.18,1.18,0,0,0,2.36,0V25.87a1.56,1.56,0,0,1,1.66-1.43,1.57,1.57,0,0,1,1.67,1.43V35a1.18,1.18,0,0,0,2.35,0V28.46a1.69,1.69,0,0,1,3.33,0v7.88a1.18,1.18,0,0,0,2.35,0v-4a1.69,1.69,0,0,1,3.33,0Z"/></svg>