<svg viewBox="0 0 69.04 42.59" xmlns="http://www.w3.org/2000/svg"><path d="m68.52 40.44-6.09-5.55v-33.71a1.18 1.18 0 0 0 -1.18-1.18h-53.48a1.18 1.18 0 0 0 -1.18 1.18v33.71l-6.21 5.65a1.19 1.19 0 0 0 -.3 1.3 1.17 1.17 0 0 0 1.1.75h66.68a1.17 1.17 0 0 0 .66-2.15zm-59.58-38.09h51.14v31.89h-51.14zm-4.72 37.89 4-3.65h52.58l4 3.65z"/><path d="m57.49 4.26h-45.8a.47.47 0 0 0 -.47.47v27.1a.47.47 0 0 0 .47.47h45.8a.47.47 0 0 0 .47-.47v-27.1a.47.47 0 0 0 -.47-.47zm-4.65 16.34a.72.72 0 0 1 -.56.57l-4 .78 2.34 3.42a1.18 1.18 0 0 1 -.26 1.63 1.14 1.14 0 0 1 -.66.2 1.17 1.17 0 0 1 -1-.51l-2.31-3.37-2.05 3.51a.72.72 0 0 1 -.61.35h-.13a.71.71 0 0 1 -.57-.57l-2.23-12.43a.71.71 0 0 1 .3-.71.68.68 0 0 1 .76 0l10.65 6.42a.71.71 0 0 1 .33.71z"/><path d="m44.11 24.48 1.89-3.27a.68.68 0 0 1 .47-.34l3.72-.73-7.75-4.68z"/></svg>