<svg xmlns="http://www.w3.org/2000/svg" viewBox="0 0 69.04 42.59"><title>Asset 2</title><path d="M68.52,40.44l-6.09-5.55V1.18A1.18,1.18,0,0,0,61.25,0H7.77A1.18,1.18,0,0,0,6.59,1.18V34.89L.38,40.54a1.19,1.19,0,0,0-.3,1.3,1.17,1.17,0,0,0,1.1.75H67.86a1.17,1.17,0,0,0,.66-2.15ZM8.94,2.35H60.08V34.24H8.94ZM4.22,40.24l4-3.65H60.8l4,3.65Z"/><path d="M57.49,4.26H11.69a.47.47,0,0,0-.47.47v27.1a.47.47,0,0,0,.47.47h45.8a.47.47,0,0,0,.47-.47V4.73A.47.47,0,0,0,57.49,4.26ZM52.84,20.6a.72.72,0,0,1-.56.57l-4,.78,2.34,3.42A1.18,1.18,0,0,1,50.36,27a1.14,1.14,0,0,1-.66.2,1.17,1.17,0,0,1-1-.51l-2.31-3.37-2.05,3.51a.72.72,0,0,1-.61.35h-.13a.71.71,0,0,1-.57-.57L40.8,14.18a.71.71,0,0,1,.3-.71.68.68,0,0,1,.76,0l10.65,6.42A.71.71,0,0,1,52.84,20.6Z"/><path d="M44.11,24.48,46,21.21a.68.68,0,0,1,.47-.34l3.72-.73-7.75-4.68Z"/></svg>