<svg viewBox="0 0 50.12 49.97" xmlns="http://www.w3.org/2000/svg"><path d="m44 6.08c-3.75-3.75-8.17-6.08-11.53-6.08a4.89 4.89 0 0 0 -3.55 1.32c-1.48 1.48-1.71 3.93-.65 6.91a15.13 15.13 0 0 0 .59 1.41l-6.69 6.46a12 12 0 0 0 -4.17-.75c-5.94 0-10.42 4.28-10.61 4.46a1.17 1.17 0 0 0 -.27.42c-.08.25-1.94 6 4.92 14.41l-10.12 9.96a.26.26 0 0 0 -.08.13l-1.84 4.78a.36.36 0 0 0 .08.37.36.36 0 0 0 .26.12.27.27 0 0 0 .13 0l5-2.06.11-.07 9.9-9.63a18.81 18.81 0 0 0 12 4.51 13.54 13.54 0 0 0 2.91-.28 1.09 1.09 0 0 0 .55-.34c3.14-3.64 5.56-8.13 2.45-14.55l6.61-6.58a12.22 12.22 0 0 0 5.33 1.5 4.9 4.9 0 0 0 3.56-1.32c2.83-2.91.71-9.53-4.89-15.1zm-13.24 6.79a.75.75 0 0 0 -.65.21.78.78 0 0 0 0 1.11.79.79 0 0 0 1.11 0 .72.72 0 0 0 .2-.43c.36.47.75.93 1.15 1.39a.54.54 0 0 0 -.24.16.77.77 0 0 0 0 1.1.78.78 0 0 0 1.1 0 .9.9 0 0 0 .14-.2c.06.05.11.11.17.17.34.35.69.67 1 1a.69.69 0 0 0 -.24.15.79.79 0 0 0 0 1.11.78.78 0 0 0 1.1 0 .81.81 0 0 0 .2-.36c.57.47 1.15.9 1.74 1.3a.77.77 0 0 0 -.82 1.28 1.11 1.11 0 0 0 .16.11l-3.37 3.37a.62.62 0 0 0 -.11-.17.79.79 0 0 0 -1.11 0 .8.8 0 0 0 0 1.11 1.13 1.13 0 0 0 .18.12l-3.37 3.38a.5.5 0 0 0 -.13-.19.77.77 0 0 0 -1.13 1.06 11.66 11.66 0 0 1 -8-8.41l2.21-2.13a.76.76 0 0 0 .22.58.79.79 0 0 0 1.11 0 .78.78 0 0 0 0-1.11.76.76 0 0 0 -.55-.23l3.66-3.53a.8.8 0 0 0 .2.45.79.79 0 0 0 1.11 0 .78.78 0 0 0 0-1.11.79.79 0 0 0 -.43-.21l2.46-2.37c.35.42.63.87.93 1.29zm-1.17 27.53a13.8 13.8 0 0 1 -2.08.15 17 17 0 0 1 -12.73-6c-6.44-7.16-5.9-12.27-5.67-13.39.89-.78 4.48-3.65 8.9-3.65a9.55 9.55 0 0 1 2.39.31l-2.4 2.31a1 1 0 0 0 -.3 1c2.2 9.49 10.35 10.78 10.7 10.87h.15a1.08 1.08 0 0 0 .76-.31l2.52-2.54c1.92 4.49.56 7.91-2.24 11.25zm8.41-20.48a.67.67 0 0 0 -.09-.14l.14.1zm9.34-.27a2.81 2.81 0 0 1 -2 .69c-2.76 0-6.7-2.15-10-5.46a21 21 0 0 1 -5-7.37c-.75-2.12-.69-3.83.16-4.68a2.74 2.74 0 0 1 2-.69c2.77 0 6.7 2.14 10 5.46 4.98 4.96 6.5 10.33 4.82 12.05z"/><path d="m21.26 21.9a.79.79 0 0 0 1.11 1.1.8.8 0 0 0 0-1.11.79.79 0 0 0 -1.11.01z"/><path d="m23.48 24.13a.78.78 0 0 0 0 1.11.78.78 0 1 0 1.1-1.11.78.78 0 0 0 -1.1 0z"/><path d="m25.7 26.35a.78.78 0 0 0 0 1.11.78.78 0 1 0 1.1-1.1.78.78 0 0 0 -1.1-.01z"/><path d="m25.69 20.82a.78.78 0 1 0 0 1.1.78.78 0 0 0 0-1.1z"/><path d="m26.8 23a.78.78 0 0 0 0 1.1.79.79 0 0 0 1.11 0 .8.8 0 0 0 0-1.11.78.78 0 0 0 -1.11.01z"/><path d="m29 25.26a.78.78 0 0 0 0 1.11.79.79 0 0 0 1.11 0 .8.8 0 0 0 0-1.11.79.79 0 0 0 -1.11 0z"/><path d="m26.79 18.6a.77.77 0 0 0 0-1.1.78.78 0 1 0 -1.1 1.1.77.77 0 0 0 1.1 0z"/><path d="m27.9 20.82a.79.79 0 0 0 1.11 0 .78.78 0 0 0 0-1.11.78.78 0 1 0 -1.11 1.1z"/><path d="m30.12 23.05a.78.78 0 1 0 0-1.11.79.79 0 0 0 0 1.11z"/><path d="m30.11 17.51a.78.78 0 0 0 0-1.11.8.8 0 0 0 -1.11 0 .79.79 0 0 0 0 1.11.78.78 0 0 0 1.11 0z"/><path d="m32.33 19.74a.78.78 0 1 0 -1.11 0 .79.79 0 0 0 1.11 0z"/><path d="m34.55 22a.78.78 0 0 0 0-1.11.79.79 0 0 0 -1.11 0 .8.8 0 0 0 0 1.11.79.79 0 0 0 1.11 0z"/></svg>