<svg viewBox="0 0 49.41 60.55" xmlns="http://www.w3.org/2000/svg"><path d="m42.66 52h-35.91a1.17 1.17 0 0 1 -1.17-1.18v-20.18a19.13 19.13 0 0 1 38.26 0v20.14a1.18 1.18 0 0 1 -1.18 1.22zm-34.73-2.4h33.56v-19a16.78 16.78 0 0 0 -33.56 0z"/><path d="m6.75 47.4h-5.57a1.18 1.18 0 0 1 -1.18-1.17v-11.23a1.18 1.18 0 0 1 1.18-1.18h5.57a1.18 1.18 0 0 1 1.18 1.18v11.23a1.18 1.18 0 0 1 -1.18 1.17zm-4.4-2.35h3.23v-8.88h-3.23z"/><path d="m48.24 47.4h-5.58a1.17 1.17 0 0 1 -1.17-1.17v-11.23a1.17 1.17 0 0 1 1.17-1.18h5.58a1.17 1.17 0 0 1 1.17 1.18v11.23a1.17 1.17 0 0 1 -1.17 1.17zm-4.4-2.35h3.22v-8.88h-3.22z"/><path d="m35.4 47.4h-21.4a4.32 4.32 0 0 1 -4.32-4.32v-3.73a4.32 4.32 0 0 1 4.32-4.35h21.4a4.33 4.33 0 0 1 4.33 4.32v3.73a4.33 4.33 0 0 1 -4.33 4.35zm-21.4-10.02a2 2 0 0 0 -2 2v3.73a2 2 0 0 0 2 2h21.4a2 2 0 0 0 2-2v-3.76a2 2 0 0 0 -2-2z"/><path d="m13.7 41.88a.78.78 0 1 0 0 1.56.78.78 0 1 0 0-1.56z"/><path d="m16.83 41.88a.78.78 0 1 0 .78.78.78.78 0 0 0 -.78-.78z"/><path d="m15.26 38.77a.78.78 0 1 0 .79.78.78.78 0 0 0 -.79-.78z"/><path d="m18.39 40.33a.78.78 0 1 0 -.78-.78.78.78 0 0 0 .78.78z"/><path d="m20 41.88a.78.78 0 1 0 .78.78.78.78 0 0 0 -.78-.78z"/><path d="m21.53 40.33a.78.78 0 1 0 -.79-.78.78.78 0 0 0 .79.78z"/><path d="m23.09 41.88a.78.78 0 1 0 .78.78.78.78 0 0 0 -.78-.78z"/><path d="m24.66 40.33a.78.78 0 1 0 -.79-.78.78.78 0 0 0 .79.78z"/><path d="m26.22 41.88a.78.78 0 1 0 0 1.56.78.78 0 1 0 0-1.56z"/><path d="m29.36 41.88a.78.78 0 1 0 .78.78.78.78 0 0 0 -.78-.78z"/><path d="m32.48 41.88a.78.78 0 1 0 .79.78.78.78 0 0 0 -.79-.78z"/><path d="m35.62 41.88a.78.78 0 1 0 .78.78.78.78 0 0 0 -.78-.78z"/><path d="m27.79 40.33a.78.78 0 1 0 -.78-.78.78.78 0 0 0 .78.78z"/><path d="m30.92 40.33a.78.78 0 1 0 -.78-.78.78.78 0 0 0 .78.78z"/><path d="m34.05 40.33a.78.78 0 1 0 0-1.56.78.78 0 0 0 0 1.56z"/><path d="m15.26 38.77a.78.78 0 1 0 .79.78.78.78 0 0 0 -.79-.78z"/><path d="m18.39 38.77a.78.78 0 1 0 .79.78.78.78 0 0 0 -.79-.78z"/><path d="m21.53 38.77a.78.78 0 1 0 .78.78.78.78 0 0 0 -.78-.78z"/><path d="m24.66 38.77a.78.78 0 1 0 .78.78.78.78 0 0 0 -.78-.78z"/><path d="m27.79 38.77a.78.78 0 1 0 .78.78.78.78 0 0 0 -.78-.78z"/><path d="m30.92 38.77a.78.78 0 1 0 .78.78.78.78 0 0 0 -.78-.78z"/><path d="m34.05 38.77a.78.78 0 0 0 0 1.56.78.78 0 1 0 0-1.56z"/><path d="m24.68 8.63a4.32 4.32 0 1 1 4.32-4.32 4.32 4.32 0 0 1 -4.32 4.32zm0-6.28a2 2 0 1 0 2 2 2 2 0 0 0 -2-2z"/><path d="m20.73 32.34a1.17 1.17 0 0 1 -1.18-1.17 1.68 1.68 0 1 0 -3.35 0 1.18 1.18 0 0 1 -2.36 0 4 4 0 1 1 8.06 0 1.17 1.17 0 0 1 -1.17 1.17z"/><path d="m34.39 32.34a1.17 1.17 0 0 1 -1.17-1.17 1.68 1.68 0 1 0 -3.36 0 1.18 1.18 0 0 1 -2.35 0 4 4 0 0 1 8.06 0 1.17 1.17 0 0 1 -1.18 1.17z"/><path d="m24.68 13.86a1.17 1.17 0 0 1 -1.17-1.17v-5.24a1.18 1.18 0 1 1 2.35 0v5.24a1.17 1.17 0 0 1 -1.18 1.17z"/><path d="m37 56.25h-24.69a1.17 1.17 0 0 1 -1.17-1.17v-4.3a1.17 1.17 0 0 1 1.17-1.18h24.69a1.18 1.18 0 0 1 1.18 1.18v4.3a1.17 1.17 0 0 1 -1.18 1.17zm-23.51-2.35h22.33v-1.9h-22.33z"/><path d="m37 60.55h-24.69a1.17 1.17 0 0 1 -1.17-1.18v-4.29a1.17 1.17 0 0 1 1.17-1.18h24.69a1.18 1.18 0 0 1 1.18 1.18v4.29a1.18 1.18 0 0 1 -1.18 1.18zm-23.51-2.35h22.33v-2h-22.33z"/></svg>