<svg xmlns="http://www.w3.org/2000/svg" viewBox="0 0 49.41 60.55"><title>Asset 6</title><path d="M42.66,52H6.75a1.17,1.17,0,0,1-1.17-1.18V30.64a19.13,19.13,0,0,1,38.26,0V50.78A1.18,1.18,0,0,1,42.66,52ZM7.93,49.6H41.49v-19a16.78,16.78,0,0,0-33.56,0Z"/><path d="M6.75,47.4H1.18A1.18,1.18,0,0,1,0,46.23V35a1.18,1.18,0,0,1,1.18-1.18H6.75A1.18,1.18,0,0,1,7.93,35V46.23A1.18,1.18,0,0,1,6.75,47.4Zm-4.4-2.35H5.58V36.17H2.35Z"/><path d="M48.24,47.4H42.66a1.17,1.17,0,0,1-1.17-1.17V35a1.17,1.17,0,0,1,1.17-1.18h5.58A1.17,1.17,0,0,1,49.41,35V46.23A1.17,1.17,0,0,1,48.24,47.4Zm-4.4-2.35h3.22V36.17H43.84Z"/><path d="M35.4,47.4H14a4.32,4.32,0,0,1-4.32-4.32V39.35A4.32,4.32,0,0,1,14,35H35.4a4.33,4.33,0,0,1,4.33,4.32v3.73A4.33,4.33,0,0,1,35.4,47.4ZM14,37.38a2,2,0,0,0-2,2v3.73a2,2,0,0,0,2,2H35.4a2,2,0,0,0,2-2V39.35a2,2,0,0,0-2-2Z"/><path d="M13.7,41.88a.78.78,0,1,0,0,1.56.78.78,0,1,0,0-1.56Z"/><path d="M16.83,41.88a.78.78,0,1,0,.78.78A.78.78,0,0,0,16.83,41.88Z"/><path d="M15.26,38.77a.78.78,0,1,0,.79.78A.78.78,0,0,0,15.26,38.77Z"/><path d="M18.39,40.33a.78.78,0,1,0-.78-.78A.78.78,0,0,0,18.39,40.33Z"/><path d="M20,41.88a.78.78,0,1,0,.78.78A.78.78,0,0,0,20,41.88Z"/><path d="M21.53,40.33a.78.78,0,1,0-.79-.78A.78.78,0,0,0,21.53,40.33Z"/><path d="M23.09,41.88a.78.78,0,1,0,.78.78A.78.78,0,0,0,23.09,41.88Z"/><path d="M24.66,40.33a.78.78,0,1,0-.79-.78A.78.78,0,0,0,24.66,40.33Z"/><path d="M26.22,41.88a.78.78,0,1,0,0,1.56.78.78,0,1,0,0-1.56Z"/><path d="M29.36,41.88a.78.78,0,1,0,.78.78A.78.78,0,0,0,29.36,41.88Z"/><path d="M32.48,41.88a.78.78,0,1,0,.79.78A.78.78,0,0,0,32.48,41.88Z"/><path d="M35.62,41.88a.78.78,0,1,0,.78.78A.78.78,0,0,0,35.62,41.88Z"/><path d="M27.79,40.33a.78.78,0,1,0-.78-.78A.78.78,0,0,0,27.79,40.33Z"/><path d="M30.92,40.33a.78.78,0,1,0-.78-.78A.78.78,0,0,0,30.92,40.33Z"/><path d="M34.05,40.33a.78.78,0,1,0,0-1.56.78.78,0,0,0,0,1.56Z"/><path d="M15.26,38.77a.78.78,0,1,0,.79.78A.78.78,0,0,0,15.26,38.77Z"/><path d="M18.39,38.77a.78.78,0,1,0,.79.78A.78.78,0,0,0,18.39,38.77Z"/><path d="M21.53,38.77a.78.78,0,1,0,.78.78A.78.78,0,0,0,21.53,38.77Z"/><path d="M24.66,38.77a.78.78,0,1,0,.78.78A.78.78,0,0,0,24.66,38.77Z"/><path d="M27.79,38.77a.78.78,0,1,0,.78.78A.78.78,0,0,0,27.79,38.77Z"/><path d="M30.92,38.77a.78.78,0,1,0,.78.78A.78.78,0,0,0,30.92,38.77Z"/><path d="M34.05,38.77a.78.78,0,0,0,0,1.56.78.78,0,1,0,0-1.56Z"/><path d="M24.68,8.63A4.32,4.32,0,1,1,29,4.31,4.32,4.32,0,0,1,24.68,8.63Zm0-6.28a2,2,0,1,0,2,2A2,2,0,0,0,24.68,2.35Z"/><path d="M20.73,32.34a1.17,1.17,0,0,1-1.18-1.17,1.68,1.68,0,1,0-3.35,0,1.18,1.18,0,0,1-2.36,0,4,4,0,1,1,8.06,0A1.17,1.17,0,0,1,20.73,32.34Z"/><path d="M34.39,32.34a1.17,1.17,0,0,1-1.17-1.17,1.68,1.68,0,1,0-3.36,0,1.18,1.18,0,0,1-2.35,0,4,4,0,0,1,8.06,0A1.17,1.17,0,0,1,34.39,32.34Z"/><path d="M24.68,13.86a1.17,1.17,0,0,1-1.17-1.17V7.45a1.18,1.18,0,1,1,2.35,0v5.24A1.17,1.17,0,0,1,24.68,13.86Z"/><path d="M37,56.25H12.31a1.17,1.17,0,0,1-1.17-1.17v-4.3a1.17,1.17,0,0,1,1.17-1.18H37a1.18,1.18,0,0,1,1.18,1.18v4.3A1.17,1.17,0,0,1,37,56.25ZM13.49,53.9H35.82V52H13.49Z"/><path d="M37,60.55H12.31a1.17,1.17,0,0,1-1.17-1.18V55.08a1.17,1.17,0,0,1,1.17-1.18H37a1.18,1.18,0,0,1,1.18,1.18v4.29A1.18,1.18,0,0,1,37,60.55ZM13.49,58.2H35.82v-2H13.49Z"/></svg>