<svg viewBox="0 0 55.65 52.7" xmlns="http://www.w3.org/2000/svg"><path d="m5 30.59a.71.71 0 1 0 -.81.58.72.72 0 0 0 .81-.58z"/><path d="m7.76 31.07a.71.71 0 1 0 -.81.57.7.7 0 0 0 .81-.57z"/><path d="m5.33 32.75a.71.71 0 0 0 -.82.58.72.72 0 0 0 .58.81.71.71 0 0 0 .24-1.39z"/><path d="m8.11 33.22a.71.71 0 0 0 -.81.58.7.7 0 0 0 .57.81.71.71 0 1 0 .24-1.39z"/><path d="m6.85 28a.71.71 0 1 0 -.82.58.71.71 0 0 0 .82-.58z"/><path d="m39.58 42.61a.71.71 0 0 0 .48 1.33.69.69 0 0 0 .42-.9.7.7 0 0 0 -.9-.43z"/><path d="m39.53 40.38a.72.72 0 0 0 -.91-.42.71.71 0 0 0 .48 1.33.72.72 0 0 0 .43-.91z"/><path d="m41.71 40.35a.7.7 0 1 0 .91.42.7.7 0 0 0 -.91-.42z"/><path d="m41.66 38.11a.71.71 0 1 0 -.43.91.72.72 0 0 0 .43-.91z"/><path d="m36.45 42.24a.71.71 0 1 0 .48 1.33.71.71 0 0 0 -.48-1.33z"/><path d="m33.27 6.71a.7.7 0 0 0 -1 0 .7.7 0 1 0 1 0z"/><path d="m30.38 8.85a.71.71 0 0 0 .05 1 .7.7 0 0 0 1 0 .7.7 0 1 0 -1-1z"/><path d="m30.27 5.89a.71.71 0 1 0 .05 1 .71.71 0 0 0 -.05-1z"/><path d="m27.37 8a.71.71 0 1 0 1 0 .71.71 0 0 0 -1 0z"/><path d="m33.42 9.7a.71.71 0 0 0 0 1 .7.7 0 1 0 0-1z"/><path d="m55.63 27.85a1.2 1.2 0 0 0 -.89-.91l-3.85-.87a25.4 25.4 0 0 0 -32.36-23.32l-6.05-2.65a1.15 1.15 0 0 0 -1.26.21 1.16 1.16 0 0 0 -.33 1.23l1.31 4a25.31 25.31 0 0 0 -5.87 38.38l-.23 7.45a1.17 1.17 0 0 0 .67 1.1 1.1 1.1 0 0 0 .5.11 1.16 1.16 0 0 0 .73-.28l4.05-3.48a25.14 25.14 0 0 0 13.4 3.88h.65a25.49 25.49 0 0 0 24.22-20.07l4.86-3.63a1.18 1.18 0 0 0 .45-1.15zm-47.78 7.59a1.23 1.23 0 0 0 -.9.29 1.2 1.2 0 0 0 -.4.85l-.11 3.68a22.88 22.88 0 0 1 -4.08-12.45 23.11 23.11 0 0 1 11.64-20.62 1.18 1.18 0 0 0 .75-1.49l-.78-2.37 9.78 4.28-5.43 9-.89-2.61a1.17 1.17 0 0 0 -1.43-.78 2.27 2.27 0 0 0 -.25.18l-.19.13a16.94 16.94 0 0 0 -7 14.16 16.71 16.71 0 0 0 2.33 8.09zm27.15-10.95 4.17 7.75a14.65 14.65 0 0 1 -13.36 9.63 14.3 14.3 0 0 1 -4.81-.72l2.47-2.15a1.18 1.18 0 0 0 -.65-2l-9-.92a14.46 14.46 0 0 1 -3-8.46 14.62 14.62 0 0 1 4.9-11.27l1.12 3.41a1.17 1.17 0 0 0 1 .8h.16a1.18 1.18 0 0 0 1-.56l4.37-7.22a14.59 14.59 0 0 1 1.75-.16h.38a14.75 14.75 0 0 1 14.1 10.9l-3.28-.73a1.16 1.16 0 0 0 -1.2.43 1.21 1.21 0 0 0 -.12 1.27zm-9 25.85h-.59a22.85 22.85 0 0 1 -12.51-3.77l-.07.06a1.17 1.17 0 0 0 -1.65-.13l-2.65 2.27.33-10.86 11 1.13-1.86 1.62a1.17 1.17 0 0 0 -.13 1.65h-.05l.28.13a1.14 1.14 0 0 0 .35.17 16.76 16.76 0 0 0 7 1.56h.44a17 17 0 0 0 14.72-9.27l1.25 2.33a1.17 1.17 0 0 0 .78.59 1.15 1.15 0 0 0 .26 0 1.2 1.2 0 0 0 .7-.23l3.64-2.7a23.14 23.14 0 0 1 -21.24 15.45zm17.29-15.42-5-9.27 2.55.57a1.18 1.18 0 0 0 1.41-.88h.06l-.03-.34a.92.92 0 0 0 0-.29 17.11 17.11 0 0 0 -17.28-14.46h-.19l1.58-2.6a1.14 1.14 0 0 0 .11-1 1.16 1.16 0 0 0 -.61-.65l-3.67-1.64a25.77 25.77 0 0 1 2.66-.23h.59a23.24 23.24 0 0 1 23.09 22.52v.1a1.17 1.17 0 0 0 .88 1.41l2.23.5z"/></svg>