<svg height="150" viewBox="0 0 150 150" width="150" xmlns="http://www.w3.org/2000/svg"><path d="m101.801959 20.0226804-14.1355672-.0226804c-15.8808248 0-26.1437114 10.5293814-26.1437114 26.8263918v12.3687628h-14.2126804c-1.2281443 0-2.2226804.9956701-2.2226804 2.2238145v17.9209278c0 1.2281443.9956701 2.2226804 2.2226804 2.2226804h14.2126804v45.2202067c0 1.228144.9945361 2.22268 2.2226804 2.22268h18.5435052c1.2281443 0 2.2226804-.99567 2.2226804-2.22268v-45.2202067h16.6179386c1.228144 0 2.22268-.9945361 2.22268-2.2226804l.006804-17.9209278c0-.5896907-.234742-1.154433-.650928-1.5717526-.416185-.4173196-.983196-.6520619-1.572886-.6520619h-16.6236086v-10.4851546c0-5.0395876 1.2009278-7.5979381 7.7657732-7.5979381l9.5223714-.0034021c1.22701 0 2.221546-.9956701 2.221546-2.2226804v-16.6406186c0-1.2258763-.993402-2.2204123-2.219278-2.2226804z" fill="#fff"/></svg>