<svg height="150" viewBox="0 0 150 150" width="150" xmlns="http://www.w3.org/2000/svg"><path d="m131.837063 87.4265291v42.4559949h-24.613301v-39.6125483c0-9.9509951-3.560048-16.7421602-12.4692474-16.7421602-6.8010437 0-10.8483496 4.5767476-12.6289078 9.0039806-.6493204 1.5827185-.8164563 3.7856554-.8164563 6.0011408v41.3495871h-24.6215777s.331602-67.0906551 0-74.0417473h24.6191748v10.4951214c-.0499272.0784951-.1148059.163131-.1617961.2392233h.1617961v-.2392233c3.270898-5.0378398 9.1123786-12.2345631 22.1874274-12.2345631 16.199102-.000267 28.342888 10.5824271 28.342888 33.3251941zm-100.9047086-67.2775485c-8.4230097 0-13.9323544 5.5248301-13.9323544 12.7901699 0 7.1070145 5.3499515 12.7995145 13.6055583 12.7995145h.164466c8.5861407 0 13.9259466-5.691432 13.9259466-12.7995145-.1617961-7.2653398-5.3398059-12.7901699-13.7636165-12.7901699zm-12.4700486 109.7335434h24.612233v-74.0417473h-24.612233z" fill="#fff"/></svg>