<?xml version="1.0" encoding="UTF-8"?>
<svg width="150px" height="150px" viewBox="0 0 150 150" version="1.1" xmlns="http://www.w3.org/2000/svg" xmlns:xlink="http://www.w3.org/1999/xlink">
    <!-- Generator: Sketch 54.1 (76490) - https://sketchapp.com -->
    <title>Twitter</title>
    <desc>Created with Sketch.</desc>
    <g id="Twitter" stroke="none" stroke-width="1" fill="none" fill-rule="evenodd">
        <path d="M142.180723,33.0891165 C137.205321,35.293755 131.866787,36.7889157 126.257671,37.4564257 C131.98496,34.0267671 136.369056,28.5868474 138.446908,22.1246787 C133.074578,25.3007631 127.144518,27.607008 120.825924,28.8572088 C115.766145,23.4594779 108.569096,20.0974096 100.586365,20.0974096 C85.2716265,20.0974096 72.8542169,32.5148193 72.8542169,47.8211647 C72.8542169,49.992008 73.0991767,52.1122691 73.5723092,54.139759 C50.5284137,52.9823293 30.0946988,41.9419076 16.4186948,25.1655823 C14.0280723,29.2541365 12.6680924,34.0181526 12.6680924,39.1035542 C12.6680924,48.7250201 17.56751,57.2144578 25.0011245,62.181245 C20.4564458,62.0292771 16.1821285,60.7790763 12.4401406,58.701004 L12.4401406,59.0473494 C12.4401406,72.4783936 22.0024096,83.6877912 34.6815663,86.238996 C32.3585341,86.8640964 29.9089357,87.2104418 27.374739,87.2104418 C25.5840361,87.2104418 23.8523092,87.0330723 22.1543775,86.6951205 C25.6852008,97.718755 35.9233735,105.73506 48.0536345,105.954839 C38.5673494,113.388454 26.6060643,117.806345 13.6143574,117.806345 C11.3759237,117.806345 9.17106426,117.671165 7.00022088,117.426205 C19.2740562,125.30755 33.8455221,129.902811 49.5066064,129.902811 C100.519217,129.902811 128.403554,87.6497791 128.403554,51.0058635 L128.310562,47.4158434 C133.758876,43.5298394 138.472309,38.6474297 142.180723,33.0891165 Z" id="Twitter-logo" fill="#FFFFFF" fill-rule="nonzero"></path>
    </g>
</svg>