<svg height="150" viewBox="0 0 150 150" width="150" xmlns="http://www.w3.org/2000/svg"><path d="m142.180723 33.0891165c-4.975402 2.2046385-10.313936 3.6997992-15.923052 4.3673092 5.727289-3.4296586 10.111385-8.8695783 12.189237-15.331747-5.37233 3.1760844-11.30239 5.4823293-17.620984 6.7325301-5.059779-5.3977309-12.256828-8.7597992-20.239559-8.7597992-15.3147385 0-27.7321481 12.4174097-27.7321481 27.7237551 0 2.1708433.2449598 4.2911044.7180923 6.3185943-23.0438955-1.1574297-43.4776104-12.1978514-57.1536144-28.9741767-2.3906225 4.0885542-3.7506024 8.8525703-3.7506024 13.9379719 0 9.6214659 4.8994176 18.1109036 12.3330321 23.0776908-4.5446787-.1519679-8.818996-1.4021687-12.5609839-3.480241v.3463454c0 13.4310442 9.562269 24.6404418 22.2414257 27.1916466-2.3230322.6251004-4.7726306.9714458-7.3068273.9714458-1.7907029 0-3.5224298-.1773695-5.2203615-.5153213 3.5308233 11.0236345 13.768996 19.0399395 25.899257 19.2597185-9.4862851 7.433615-21.4475702 11.851506-34.4392771 11.851506-2.2384337 0-4.44329314-.13518-6.61413652-.38014 12.27383532 7.881345 26.84530122 12.476606 42.50638552 12.476606 51.0126106 0 78.8969476-42.2530319 78.8969476-78.8969475l-.092992-3.5900201c5.448314-3.886004 10.161747-8.7684137 13.870161-14.3267269z" fill="#fff"/></svg>