<svg height="150" viewBox="0 0 150 150" width="150" xmlns="http://www.w3.org/2000/svg"><path d="m120.012647 20.2217647c-17.586765-.5738235-29.4879411 9.2914706-35.7197058 29.6070588 3.2094117-1.3217647 6.3282353-1.9888235 9.37-1.9888235 6.4129408 0 9.2514708 3.5991176 8.4938238 10.8164706-.375883 4.3705882-3.2091179 10.73-8.4938238 19.0758823-5.3055883 8.3597059-9.2685294 12.532353-11.9011765 12.532353-3.4179412 0-6.5291176-6.4582353-9.3697059-19.3588235-.952647-3.7994118-2.6561764-13.4741177-5.0952941-29.0485295-2.2867647-14.4252941-8.3294118-21.1652941-18.155-20.2179411-4.1564706.3820588-10.3829412 4.1885294-18.6929412 11.3923529-6.062647 5.5070588-12.2052941 11.0155882-18.4488235 16.5185294l5.9485294 7.68c5.677353-3.9888235 8.9985294-5.9738235 9.9208824-5.9738235 4.3535294 0 8.4191176 6.8291176 12.2023529 20.4855882 3.3911765 12.542353 6.8111765 25.0676471 10.2188235 37.5917652 5.0752942 13.66647 11.3320589 20.502352 18.6917647 20.502352 11.9038236 0 26.4788236-11.195588 43.6673531-33.5949995 16.628529-21.4438236 25.213235-38.3388236 25.792353-50.6885294.763235-16.5044118-5.379412-24.9561765-18.429412-25.3308824z" fill="#fff"/></svg>